PathFileType	4	(X/Y/Z)	C:\Users\WrightLab\Desktop\Jo\P5V139.trc
DataRate	CameraRate	NumFrames	NumMarkers	Units	OrigDataRate	OrigDataStartFrame	OrigNumFrames
100.00	100.00	       15	19	mm	100.00	215	       571
Frame#	Time	Headset_Front			Headset_Back			Headset_Left			Headset_Right			Left_Shoulder			Right_Shoulder			Sternum			C7			Left Elbow			Right Elbow			Left Wrist			Right Wrist			Left ASIS			Right ASIS			S2			Left Knee			Right Knee			Left Ankle			Right Ankle			
		X1	Y1	Z1	X2	Y2	Z2	X3	Y3	Z3	X4	Y4	Z4	X5	Y5	Z5	X6	Y6	Z6	X7	Y7	Z7	X8	Y8	Z8	X9	Y9	Z9	X10	Y10	Z10	X11	Y11	Z11	X12	Y12	Z12	X13	Y13	Z13	X14	Y14	Z14	X15	Y15	Z15	X16	Y16	Z16	X17	Y17	Z17	X18	Y18	Z18	X19	Y19	Z19	

215	2.140	-41.22939	1546.40479	412.02502	-100.72032	1618.02222	292.87512							245.55637	1515.62549	329.92596	-72.28891	1450.10376	77.88499	29.41000	1334.16345	275.08905	150.50209	1537.62134	103.29173	356.65137	1265.40698	367.31888	-57.46114	1183.26807	-26.27929	164.64908	1212.88501	457.45480	-149.91243	1086.88879	165.57433	141.54218	965.58264	408.13229	-28.29254	950.85358	180.10834	294.95389	996.04803	116.09046	145.16670	567.89215	504.24249	37.50650	498.34995	158.06189	329.36700	235.41026	325.95850	265.92361	112.75462	161.82442	
216	2.150	-46.85872	1546.30872	417.48303	-107.54644	1618.70300	299.16986							237.65411	1515.45764	337.11249	-78.31370	1450.99927	82.85214	22.66790	1334.55505	280.03305	144.41362	1538.22986	109.81050	348.42947	1265.32544	374.78232	-63.27449	1184.28064	-21.04660	156.42136	1214.02075	464.37399	-156.70572	1088.18140	170.73488	132.08881	966.11560	413.50629	-33.21683	951.53748	183.94167	288.54169	997.15228	125.24110	131.39337	571.49725	512.96063	35.68938	497.51233	160.31483	310.51385	226.46008	349.24921	265.65228	113.56107	162.81154	
217	2.160	-52.95076	1546.53467	423.92310	-114.59860	1619.55200	305.64377							229.95273	1515.92883	344.84399	-84.24234	1452.09509	87.39573	14.60348	1335.04785	285.60443	138.31981	1538.87939	116.77081	340.42853	1265.80933	382.68936	-69.15752	1185.16516	-15.82353	148.60542	1214.52246	470.72003	-162.74832	1089.39795	175.65123	122.43646	966.57971	419.67517	-38.32734	951.80914	187.36327	282.35043	998.37659	132.82155	117.23573	573.54095	519.67029	39.90523	494.56750	162.04803	290.16318	216.74785	372.34216	265.54590	114.45440	163.20059	
218	2.170	-61.59511	1547.39771	430.84863	-121.65385	1620.11670	312.04907							222.91095	1516.31311	352.41727	-90.62495	1452.73853	92.35567	7.00298	1335.19141	291.20248	132.13683	1538.98999	124.07041	332.63431	1265.57666	390.08392	-75.45642	1185.95117	-10.43267	139.58397	1215.18298	477.52805	-169.92831	1090.61292	181.16374	113.00737	966.79193	425.23975	-43.54226	952.72028	190.75543	276.27859	999.05646	141.68398	103.06857	576.16168	525.62054	37.53289	493.82928	164.37733	268.20313	206.90701	396.32693	265.30109	115.30129	163.70538	
219	2.180	-68.83002	1547.66528	437.33752	-128.84303	1620.63403	318.48636							215.01933	1515.85986	360.98706	-97.33207	1453.63770	97.74148	-1.27448	1335.36511	296.77304	125.43224	1539.58813	130.47012	324.56934	1265.83679	397.24161	-81.60477	1186.74548	-5.21738	131.82024	1215.07593	484.47876	-176.65709	1091.86072	186.43810	104.15285	966.67566	430.23126	-48.96242	953.02240	193.17955	269.67053	999.64587	150.29074	89.34219	577.27338	530.89160	34.10618	494.92490	165.12131	245.60846	197.14107	419.06644	264.60153	116.78915	164.05695	
220	2.190	-75.82291	1548.22900	443.65421	-135.98448	1620.84412	324.93869							206.43137	1515.64001	366.90576	-103.73461	1454.16602	102.34119	-9.11110	1335.30676	302.46298	118.90784	1539.62219	137.50325	315.97437	1265.56262	404.89578	-87.90602	1187.14404	-0.23126	122.82269	1215.71094	491.01205	-183.56197	1092.69299	191.23767	95.57130	966.35809	435.66513	-54.60192	953.42236	196.76682	263.97342	1000.19360	158.07954	75.32613	578.31476	536.28003	31.59615	495.63113	166.67065	222.46938	187.55879	441.45044	264.25330	117.43367	164.28351	
221	2.200	-84.70604	1548.57642	450.85269	-143.16479	1620.87659	331.41248							198.11366	1515.25720	374.51483	-110.59816	1454.68469	107.75304	-17.27077	1335.83752	308.25934	112.13922	1539.56372	144.99039	308.50027	1265.57825	411.80646	-94.45703	1187.40198	5.19375	114.27252	1215.74817	498.17874	-190.53009	1093.39929	196.81873	86.52648	966.09821	441.79425	-60.20283	953.20648	200.14786	256.38696	1000.39148	166.83131	63.77098	578.35760	540.57788	30.17204	495.42358	167.29869	196.60008	178.09705	463.79251	264.10086	118.40279	164.77766	
222	2.210	-90.58457	1548.12036	456.73026	-150.50926	1620.94543	337.99451							189.48360	1514.89160	382.02585	-117.34225	1454.81909	112.74286	-25.90215	1335.19421	313.80630	104.98044	1539.87476	151.03189	299.39426	1265.06946	419.25565	-101.13678	1187.71619	10.57923	106.34908	1215.79883	505.51303	-198.14381	1094.38708	202.10797	78.25623	965.47455	447.14755	-65.87488	953.53278	203.70113	249.11108	1000.97870	175.55489	50.92694	578.16400	544.72064	28.19184	495.73096	168.20351	169.63174	168.96704	484.51620	262.85049	120.00583	165.40370	
223	2.220	-97.79145	1548.00037	463.62079	-157.96651	1620.85059	344.84277							180.98961	1514.22229	388.75208	-124.45912	1454.99927	118.43367	-33.99327	1334.80432	319.50519	97.90424	1539.51257	158.54381	291.06781	1264.60449	426.76233	-108.33729	1187.88184	15.58058	97.21556	1215.73010	512.14001	-205.25150	1094.71069	207.25116	70.36464	964.62030	452.19940	-71.97974	953.20813	207.36432	241.52873	1001.27509	184.87224	39.32042	577.09296	548.40625	25.78714	495.66815	168.97523	142.13977	160.12970	505.14359	262.84637	120.95013	165.89824	
224	2.230	-105.48663	1547.71313	470.27820	-4.52355	1243.36792	521.20929							173.31061	1513.70898	397.32571	-131.67409	1454.79431	123.92261	-42.61718	1334.57727	325.60678	90.67834	1539.02686	165.85258	282.99100	1264.03467	433.93170	-115.46729	1188.10620	20.65225	88.87142	1215.65686	519.60455	-212.96066	1094.70544	212.21245	62.06565	963.79193	457.82947	-77.62883	953.19275	211.51704	234.30016	1001.93988	194.44940	27.91875	575.42889	551.61505	22.90617	495.20212	169.69856	113.34780	152.44664	523.10059	262.02542	122.07569	166.49539	
225	2.240	-113.04018	1547.71204	477.25473										164.77223	1512.98645	403.31973	-139.09361	1454.36963	129.90976	-50.71070	1333.80273	331.62573	83.06360	1539.01099	172.01393	274.28253	1262.86133	441.05807	-122.86459	1188.09082	25.64529	80.35184	1215.03723	526.21570	-220.58533	1094.68469	217.92467	53.29737	962.84460	463.96234	-83.84927	952.88159	216.39691	227.24258	1002.59485	202.84233	17.75231	573.04150	554.28113	19.70912	496.21829	171.15544	84.19362	145.92200	538.35419	260.73996	123.86526	166.62430	
226	2.250	-120.53088	1547.11255	484.11743										154.98288	1511.97278	409.74490	-146.36626	1454.11426	135.62529	-58.84203	1333.66980	337.56134	75.44241	1538.41760	179.59621	265.72891	1262.01843	448.19214	-130.26413	1187.94446	31.32997	71.30704	1215.15393	533.40997	-228.40181	1094.66614	223.40295	45.40334	962.06958	469.03284	-90.05968	952.43988	220.08072	219.55119	1003.30389	212.22458	8.78121	569.97815	555.97772	16.75641	496.30832	172.07571	54.46232	139.84457	552.67957	260.00977	125.07149	167.12938	
227	2.260	-128.10783	1546.44116	491.17041										147.23009	1510.83228	418.64865	-154.03343	1453.42163	141.71123	-67.38297	1332.52820	344.09583	67.62658	1537.74426	185.99316	256.59174	1261.14954	455.21552	-138.09158	1187.72705	36.52582	62.46976	1214.57568	540.59692	-236.64978	1094.34326	228.85388	37.22622	960.52893	474.40106	-95.84064	952.02655	225.34090	212.01601	1003.92877	220.91487	0.45835	566.27423	558.17163	13.38265	495.67935	172.88000	23.60953	135.65492	565.23077	259.24078	126.41309	167.72740	
228	2.270	-135.95717	1546.11292	498.29007	-78.15154	1202.31494	613.11035							138.42467	1509.85693	425.72852	-161.58945	1452.60535	147.96709	-75.42463	1331.62732	350.05917	59.93512	1536.82983	193.27946	248.43388	1260.08875	462.62308	-145.66409	1187.17590	42.37769	53.83641	1213.95959	547.41846	-244.66150	1093.63367	234.18959	28.63729	959.33008	479.87317	-102.16225	951.45575	230.18138	204.62289	1004.38513	228.59557	-7.62544	561.67944	559.58173	8.41892	495.99036	174.65839	-5.57504	131.96846	574.70319	258.10822	127.75098	168.65533	
229	2.280	-142.94664	1545.48584	505.10681										129.47905	1508.37366	432.75052	-169.39488	1451.48645	154.44527	-83.85853	1330.25769	356.64856	51.93927	1536.14258	200.13843	239.53777	1258.57458	469.95688	-154.09633	1186.87402	47.82616	45.10298	1213.61694	554.88788	-253.27895	1093.25916	239.88974	19.96808	958.42712	485.53076	-108.35691	950.83575	235.73244	195.15814	1003.05249	236.77338	-15.44146	557.00604	560.67114	7.10251	494.89645	175.68633	-33.37585	129.12627	582.94055	256.70276	129.22188	169.26764	
